<?xml version="1.0" encoding="UTF-8"?>
<!DOCTYPE svg PUBLIC "-//W3C//DTD SVG 1.1//EN" "http://www.w3.org/Graphics/SVG/1.1/DTD/svg11.dtd">
<svg version="1.2" width="156.41mm" height="187.78mm" viewBox="4525 514 15641 18778" preserveAspectRatio="xMidYMid" fill-rule="evenodd" stroke-width="28.222" stroke-linejoin="round" xmlns="http://www.w3.org/2000/svg" xmlns:ooo="http://xml.openoffice.org/svg/export" xmlns:xlink="http://www.w3.org/1999/xlink" xmlns:presentation="http://sun.com/xmlns/staroffice/presentation" xmlns:smil="http://www.w3.org/2001/SMIL20/" xmlns:anim="urn:oasis:names:tc:opendocument:xmlns:animation:1.0" xml:space="preserve">
 <defs class="EmbeddedBulletChars">
  <g id="bullet-char-template-57356" transform="scale(0.00048828125,-0.00048828125)">
   <path d="M 580,1141 L 1163,571 580,0 -4,571 580,1141 Z"/>
  </g>
  <g id="bullet-char-template-57354" transform="scale(0.00048828125,-0.00048828125)">
   <path d="M 8,1128 L 1137,1128 1137,0 8,0 8,1128 Z"/>
  </g>
  <g id="bullet-char-template-10146" transform="scale(0.00048828125,-0.00048828125)">
   <path d="M 174,0 L 602,739 174,1481 1456,739 174,0 Z M 1358,739 L 309,1346 659,739 1358,739 Z"/>
  </g>
  <g id="bullet-char-template-10132" transform="scale(0.00048828125,-0.00048828125)">
   <path d="M 2015,739 L 1276,0 717,0 1260,543 174,543 174,936 1260,936 717,1481 1274,1481 2015,739 Z"/>
  </g>
  <g id="bullet-char-template-10007" transform="scale(0.00048828125,-0.00048828125)">
   <path d="M 0,-2 C -7,14 -16,27 -25,37 L 356,567 C 262,823 215,952 215,954 215,979 228,992 255,992 264,992 276,990 289,987 310,991 331,999 354,1012 L 381,999 492,748 772,1049 836,1024 860,1049 C 881,1039 901,1025 922,1006 886,937 835,863 770,784 769,783 710,716 594,584 L 774,223 C 774,196 753,168 711,139 L 727,119 C 717,90 699,76 672,76 641,76 570,178 457,381 L 164,-76 C 142,-110 111,-127 72,-127 30,-127 9,-110 8,-76 1,-67 -2,-52 -2,-32 -2,-23 -1,-13 0,-2 Z"/>
  </g>
  <g id="bullet-char-template-10004" transform="scale(0.00048828125,-0.00048828125)">
   <path d="M 285,-33 C 182,-33 111,30 74,156 52,228 41,333 41,471 41,549 55,616 82,672 116,743 169,778 240,778 293,778 328,747 346,684 L 369,508 C 377,444 397,411 428,410 L 1163,1116 C 1174,1127 1196,1133 1229,1133 1271,1133 1292,1118 1292,1087 L 1292,965 C 1292,929 1282,901 1262,881 L 442,47 C 390,-6 338,-33 285,-33 Z"/>
  </g>
  <g id="bullet-char-template-9679" transform="scale(0.00048828125,-0.00048828125)">
   <path d="M 813,0 C 632,0 489,54 383,161 276,268 223,411 223,592 223,773 276,916 383,1023 489,1130 632,1184 813,1184 992,1184 1136,1130 1245,1023 1353,916 1407,772 1407,592 1407,412 1353,268 1245,161 1136,54 992,0 813,0 Z"/>
  </g>
  <g id="bullet-char-template-8226" transform="scale(0.00048828125,-0.00048828125)">
   <path d="M 346,457 C 273,457 209,483 155,535 101,586 74,649 74,723 74,796 101,859 155,911 209,963 273,989 346,989 419,989 480,963 531,910 582,859 608,796 608,723 608,648 583,586 532,535 482,483 420,457 346,457 Z"/>
  </g>
  <g id="bullet-char-template-8211" transform="scale(0.00048828125,-0.00048828125)">
   <path d="M -4,459 L 1135,459 1135,606 -4,606 -4,459 Z"/>
  </g>
  <g id="bullet-char-template-61548" transform="scale(0.00048828125,-0.00048828125)">
   <path d="M 173,740 C 173,903 231,1043 346,1159 462,1274 601,1332 765,1332 928,1332 1067,1274 1183,1159 1299,1043 1357,903 1357,740 1357,577 1299,437 1183,322 1067,206 928,148 765,148 601,148 462,206 346,322 231,437 173,577 173,740 Z"/>
  </g>
 </defs>
 <g class="Page">
  <g class="com.sun.star.drawing.ClosedBezierShape">
   <g id="id3">
    <rect class="BoundingBox" stroke="none" fill="none" x="9589" y="1047" width="5707" height="17895"/>
    <path fill="rgb(0,0,0)" stroke="none" d="M 12537,1119 C 12301,942 11985,1119 12004,1396 12162,2937 12281,4300 12103,5426 11925,6750 11392,7658 10602,9179 10226,9930 9752,10878 9614,12103 9515,13248 9733,14315 10128,15223 10819,16823 11925,18088 13327,18898 13564,19036 13841,18819 13801,18542 13485,17001 13208,15658 13149,14433 13129,13742 13169,13129 13307,12636 13406,12222 13683,11649 14058,10918 14413,10187 14848,9318 15085,8310 15342,7303 15362,6196 15145,5189 14730,3470 13781,2107 12537,1119 Z"/>
   </g>
  </g>
  <g class="com.sun.star.drawing.ClosedBezierShape">
   <g id="id4">
    <rect class="BoundingBox" stroke="none" fill="none" x="4525" y="514" width="5025" height="13254"/>
    <path fill="rgb(0,0,0)" stroke="none" d="M 8211,626 C 8014,408 7658,527 7639,823 7579,1910 7520,2858 7263,3648 6987,4616 6493,5228 5722,6275 5367,6789 4912,7441 4656,8350 4458,9199 4498,10009 4695,10740 5011,11945 5643,12932 6513,13683 6730,13880 7066,13702 7066,13426 7007,12321 6967,11353 7046,10483 7105,9970 7204,9515 7362,9160 7481,8863 7757,8468 8113,7974 8449,7480 8864,6868 9160,6157 9456,5446 9595,4616 9535,3846 9456,2542 8962,1475 8212,626 L 8211,626 Z"/>
   </g>
  </g>
  <g class="com.sun.star.drawing.ClosedBezierShape">
   <g id="id5">
    <rect class="BoundingBox" stroke="none" fill="none" x="15725" y="5989" width="4441" height="13303"/>
    <path fill="rgb(0,0,0)" stroke="none" d="M 20083,9081 C 19846,7836 19214,6829 18384,6078 18167,5880 17811,6038 17831,6335 17910,7421 17950,8370 17792,9180 17633,10167 17199,10839 16567,11965 16271,12517 15895,13228 15757,14137 15658,15006 15796,15796 16073,16508 16527,17653 17278,18582 18226,19234 18463,19392 18779,19194 18740,18918 18562,17831 18384,16863 18384,15994 18384,15480 18424,15006 18542,14631 18641,14315 18858,13900 19155,13367 19431,12833 19787,12182 19984,11432 20182,10661 20221,9831 20083,9081 Z"/>
   </g>
  </g>
 </g>
</svg>