<?xml version="1.0" encoding="UTF-8"?>
<!DOCTYPE svg PUBLIC "-//W3C//DTD SVG 1.1//EN" "http://www.w3.org/Graphics/SVG/1.1/DTD/svg11.dtd">
<svg version="1.2" width="125.41mm" height="125.43mm" viewBox="622 621 12541 12543" preserveAspectRatio="xMidYMid" fill-rule="evenodd" stroke-width="28.222" stroke-linejoin="round" xmlns="http://www.w3.org/2000/svg" xmlns:ooo="http://xml.openoffice.org/svg/export" xmlns:xlink="http://www.w3.org/1999/xlink" xmlns:presentation="http://sun.com/xmlns/staroffice/presentation" xmlns:smil="http://www.w3.org/2001/SMIL20/" xmlns:anim="urn:oasis:names:tc:opendocument:xmlns:animation:1.0" xml:space="preserve">
 <defs class="EmbeddedBulletChars">
  <g id="bullet-char-template-57356" transform="scale(0.00048828125,-0.00048828125)">
   <path d="M 580,1141 L 1163,571 580,0 -4,571 580,1141 Z"/>
  </g>
  <g id="bullet-char-template-57354" transform="scale(0.00048828125,-0.00048828125)">
   <path d="M 8,1128 L 1137,1128 1137,0 8,0 8,1128 Z"/>
  </g>
  <g id="bullet-char-template-10146" transform="scale(0.00048828125,-0.00048828125)">
   <path d="M 174,0 L 602,739 174,1481 1456,739 174,0 Z M 1358,739 L 309,1346 659,739 1358,739 Z"/>
  </g>
  <g id="bullet-char-template-10132" transform="scale(0.00048828125,-0.00048828125)">
   <path d="M 2015,739 L 1276,0 717,0 1260,543 174,543 174,936 1260,936 717,1481 1274,1481 2015,739 Z"/>
  </g>
  <g id="bullet-char-template-10007" transform="scale(0.00048828125,-0.00048828125)">
   <path d="M 0,-2 C -7,14 -16,27 -25,37 L 356,567 C 262,823 215,952 215,954 215,979 228,992 255,992 264,992 276,990 289,987 310,991 331,999 354,1012 L 381,999 492,748 772,1049 836,1024 860,1049 C 881,1039 901,1025 922,1006 886,937 835,863 770,784 769,783 710,716 594,584 L 774,223 C 774,196 753,168 711,139 L 727,119 C 717,90 699,76 672,76 641,76 570,178 457,381 L 164,-76 C 142,-110 111,-127 72,-127 30,-127 9,-110 8,-76 1,-67 -2,-52 -2,-32 -2,-23 -1,-13 0,-2 Z"/>
  </g>
  <g id="bullet-char-template-10004" transform="scale(0.00048828125,-0.00048828125)">
   <path d="M 285,-33 C 182,-33 111,30 74,156 52,228 41,333 41,471 41,549 55,616 82,672 116,743 169,778 240,778 293,778 328,747 346,684 L 369,508 C 377,444 397,411 428,410 L 1163,1116 C 1174,1127 1196,1133 1229,1133 1271,1133 1292,1118 1292,1087 L 1292,965 C 1292,929 1282,901 1262,881 L 442,47 C 390,-6 338,-33 285,-33 Z"/>
  </g>
  <g id="bullet-char-template-9679" transform="scale(0.00048828125,-0.00048828125)">
   <path d="M 813,0 C 632,0 489,54 383,161 276,268 223,411 223,592 223,773 276,916 383,1023 489,1130 632,1184 813,1184 992,1184 1136,1130 1245,1023 1353,916 1407,772 1407,592 1407,412 1353,268 1245,161 1136,54 992,0 813,0 Z"/>
  </g>
  <g id="bullet-char-template-8226" transform="scale(0.00048828125,-0.00048828125)">
   <path d="M 346,457 C 273,457 209,483 155,535 101,586 74,649 74,723 74,796 101,859 155,911 209,963 273,989 346,989 419,989 480,963 531,910 582,859 608,796 608,723 608,648 583,586 532,535 482,483 420,457 346,457 Z"/>
  </g>
  <g id="bullet-char-template-8211" transform="scale(0.00048828125,-0.00048828125)">
   <path d="M -4,459 L 1135,459 1135,606 -4,606 -4,459 Z"/>
  </g>
  <g id="bullet-char-template-61548" transform="scale(0.00048828125,-0.00048828125)">
   <path d="M 173,740 C 173,903 231,1043 346,1159 462,1274 601,1332 765,1332 928,1332 1067,1274 1183,1159 1299,1043 1357,903 1357,740 1357,577 1299,437 1183,322 1067,206 928,148 765,148 601,148 462,206 346,322 231,437 173,577 173,740 Z"/>
  </g>
 </defs>
 <g class="Page">
  <g class="com.sun.star.drawing.ClosedBezierShape">
   <g id="id3">
    <rect class="BoundingBox" stroke="none" fill="none" x="1945" y="621" width="2487" height="2489"/>
    <path fill="rgb(255,255,255)" stroke="none" d="M 3188,3109 C 2502,3109 1945,2551 1945,1865 1945,1179 2502,622 3188,622 3874,622 4431,1179 4431,1865 4431,2551 3874,3109 3188,3109 Z M 3188,992 C 2707,992 2315,1383 2315,1865 2315,2347 2707,2738 3188,2738 3669,2738 4061,2347 4061,1865 4061,1383 3669,992 3188,992 Z"/>
   </g>
  </g>
  <g class="com.sun.star.drawing.ClosedBezierShape">
   <g id="id4">
    <rect class="BoundingBox" stroke="none" fill="none" x="3003" y="2738" width="371" height="10425"/>
    <path fill="rgb(255,255,255)" stroke="none" d="M 3188,13162 C 3086,13162 3003,13079 3003,12977 L 3003,2924 C 3003,2821 3086,2738 3188,2738 3290,2738 3373,2821 3373,2924 L 3373,12977 C 3373,13079 3290,13162 3188,13162 Z"/>
   </g>
  </g>
  <g class="com.sun.star.drawing.ClosedBezierShape">
   <g id="id5">
    <rect class="BoundingBox" stroke="none" fill="none" x="622" y="12792" width="12541" height="372"/>
    <path fill="rgb(255,255,255)" stroke="none" d="M 12977,13162 L 807,13162 C 705,13162 622,13079 622,12977 622,12875 705,12792 807,12792 L 12977,12792 C 13079,12792 13162,12875 13162,12977 13162,13079 13079,13162 12977,13162 Z"/>
   </g>
  </g>
  <g class="com.sun.star.drawing.ClosedBezierShape">
   <g id="id6">
    <rect class="BoundingBox" stroke="none" fill="none" x="3002" y="3807" width="3018" height="4848"/>
    <path fill="rgb(255,255,255)" stroke="none" d="M 5834,8654 C 5822,8654 5810,8653 5798,8651 L 3152,8132 C 3065,8115 3003,8039 3003,7950 L 3003,4511 C 3003,4422 3065,4346 3152,4329 L 5798,3811 C 5852,3800 5909,3814 5951,3850 5994,3885 6019,3937 6019,3993 L 6019,8469 C 6019,8524 5994,8577 5951,8612 5918,8639 5876,8654 5834,8654 Z M 3373,7798 L 5648,8244 5648,4218 3373,4663 3373,7798 Z"/>
   </g>
  </g>
  <g class="com.sun.star.drawing.ClosedBezierShape">
   <g id="id7">
    <rect class="BoundingBox" stroke="none" fill="none" x="5648" y="3796" width="2753" height="4870"/>
    <path fill="rgb(255,255,255)" stroke="none" d="M 5888,8665 C 5876,8665 5864,8664 5853,8661 L 5798,8651 C 5711,8634 5648,8557 5648,8469 L 5648,3993 C 5648,3904 5711,3828 5798,3811 L 5853,3800 C 5876,3796 5899,3795 5922,3800 L 8249,4234 C 8336,4250 8400,4327 8400,4416 L 8400,8045 C 8400,8135 8336,8211 8249,8227 L 5922,8662 C 5911,8664 5900,8665 5888,8665 Z M 6019,4195 L 6019,8267 8029,7892 8029,4570 6019,4195 Z"/>
   </g>
  </g>
  <g class="com.sun.star.drawing.ClosedBezierShape">
   <g id="id8">
    <rect class="BoundingBox" stroke="none" fill="none" x="10410" y="4674" width="2753" height="3114"/>
    <path fill="rgb(255,255,255)" stroke="none" d="M 10596,7786 C 10553,7786 10511,7771 10477,7743 10435,7708 10410,7656 10410,7601 L 10410,4860 C 10410,4805 10435,4753 10477,4718 10520,4683 10576,4668 10630,4678 L 13011,5123 C 13098,5139 13162,5215 13162,5305 L 13162,7157 C 13162,7246 13098,7322 13011,7339 L 10630,7783 C 10618,7785 10607,7786 10596,7786 Z M 10781,5083 L 10781,7378 12792,7003 12792,5458 10781,5083 Z"/>
   </g>
  </g>
  <g class="com.sun.star.drawing.ClosedBezierShape">
   <g id="id9">
    <rect class="BoundingBox" stroke="none" fill="none" x="8029" y="4230" width="2753" height="4002"/>
    <path fill="rgb(255,255,255)" stroke="none" d="M 8215,8231 C 8172,8231 8130,8216 8096,8188 8054,8153 8029,8100 8029,8045 L 8029,4416 C 8029,4361 8053,4309 8096,4273 8139,4237 8195,4224 8249,4234 L 10630,4678 C 10717,4695 10781,4771 10781,4860 L 10781,7601 C 10781,7690 10717,7767 10630,7783 L 8249,8227 C 8237,8230 8226,8231 8215,8231 Z M 8400,4639 L 8400,7822 10410,7447 10410,5014 8400,4639 Z"/>
   </g>
  </g>
 </g>
</svg>